<?xml version="1.0" standalone="no"?>
<!DOCTYPE svg PUBLIC "-//W3C//DTD SVG 20010904//EN"
 "http://www.w3.org/TR/2001/REC-SVG-20010904/DTD/svg10.dtd">
<svg version="1.0" xmlns="http://www.w3.org/2000/svg"
 width="512.000000pt" height="512.000000pt" viewBox="0 0 512.000000 512.000000"
 preserveAspectRatio="xMidYMid meet">

<g transform="translate(0.000000,512.000000) scale(0.100000,-0.100000)"
fill="#000000" stroke="none">
<path d="M3130 4945 c-306 -63 -544 -284 -625 -580 -23 -87 -30 -238 -15 -335
12 -79 15 -85 68 -144 81 -90 161 -200 216 -300 53 -94 77 -115 186 -164 150
-66 356 -83 515 -42 338 87 581 382 602 731 21 341 -187 668 -501 790 -148 57
-305 73 -446 44z m205 -160 c22 -22 25 -32 25 -105 0 -71 2 -80 18 -80 10 0
42 -7 71 -16 131 -39 229 -227 156 -299 -49 -50 -135 -15 -135 54 0 20 -11 43
-29 63 l-29 33 -117 3 c-162 5 -205 -16 -205 -101 0 -29 7 -46 29 -68 29 -29
30 -29 153 -29 161 0 214 -15 278 -79 84 -85 103 -193 50 -298 -43 -86 -124
-143 -205 -143 l-35 0 0 -79 c0 -69 -3 -84 -23 -107 -31 -35 -77 -37 -112 -4
-23 21 -25 31 -25 107 l0 83 -35 0 c-107 0 -216 100 -231 213 -9 63 1 94 36
112 55 29 120 -13 120 -77 0 -19 10 -40 29 -59 l29 -29 131 0 c120 0 132 2
156 23 17 14 28 36 32 63 5 36 1 46 -25 75 l-30 34 -154 5 c-144 5 -156 7
-200 33 -81 47 -128 127 -128 218 0 74 18 124 63 175 46 53 94 79 160 89 l47
7 0 80 c0 70 3 82 25 103 15 16 36 25 55 25 19 0 40 -9 55 -25z"/>
<path d="M1344 4190 c-313 -32 -596 -171 -817 -399 -185 -192 -301 -413 -354
-678 -24 -121 -24 -367 1 -482 71 -342 241 -616 505 -814 160 -121 358 -209
556 -248 107 -21 398 -18 505 5 522 113 917 506 1031 1026 31 137 33 388 6
520 -100 481 -431 858 -887 1010 -152 51 -384 77 -546 60z m56 -410 c17 -17
20 -33 20 -100 l0 -80 85 0 85 0 0 77 c0 93 19 123 81 123 59 0 79 -33 79
-131 l0 -77 50 -17 c62 -21 139 -77 184 -136 121 -155 107 -384 -31 -523 l-44
-45 39 -39 c209 -209 130 -560 -150 -666 l-46 -18 -4 -90 c-3 -80 -6 -92 -27
-109 -32 -26 -77 -24 -106 6 -22 22 -25 32 -25 105 l0 80 -85 0 -85 0 0 -82
c0 -70 -3 -85 -22 -105 -23 -24 -66 -30 -98 -13 -26 14 -40 63 -40 136 l0 64
-90 0 c-95 0 -142 14 -154 45 -3 9 -6 320 -6 691 l0 675 25 24 c22 23 31 25
125 25 l100 0 0 65 c0 66 17 118 42 128 31 13 79 6 98 -13z"/>
<path d="M1170 3195 l0 -246 283 3 282 3 48 28 c164 97 164 327 0 424 l-48 28
-282 3 -283 3 0 -246z"/>
<path d="M1170 2544 l0 -245 278 3 c275 3 278 3 327 29 177 90 174 341 -4 432
l-55 27 -273 0 -273 0 0 -246z"/>
<path d="M4045 3583 c-58 -81 -187 -198 -274 -249 -133 -78 -311 -134 -425
-134 -39 0 -47 -4 -64 -32 -64 -107 -104 -268 -104 -423 -1 -346 186 -648 495
-800 137 -67 225 -88 387 -89 103 -1 153 4 210 18 337 86 580 329 666 666 15
58 19 107 18 215 -1 122 -4 152 -28 230 -110 364 -408 610 -786 649 l-55 5
-40 -56z m125 -310 c60 -19 139 -85 174 -147 33 -56 48 -143 36 -208 -6 -28
-10 -52 -10 -54 0 -2 7 -4 15 -4 32 0 112 -50 154 -95 62 -67 84 -124 85 -215
0 -92 -30 -167 -94 -228 -68 -67 -120 -87 -225 -87 -98 0 -140 15 -208 75
l-34 29 -24 -25 c-13 -14 -46 -38 -74 -52 -43 -23 -62 -27 -140 -27 -105 0
-157 20 -225 87 -63 61 -94 136 -94 228 0 91 22 147 85 215 42 45 122 95 154
95 8 0 15 2 15 4 0 2 -4 26 -10 54 -20 108 19 213 109 294 82 74 200 97 311
61z"/>
<path d="M3993 3109 c-150 -74 -95 -299 72 -299 169 0 221 226 69 300 -52 26
-88 25 -141 -1z"/>
<path d="M3752 2693 c-87 -43 -114 -159 -57 -241 23 -31 87 -62 131 -62 50 0
117 41 138 84 23 48 21 121 -5 163 -40 65 -136 91 -207 56z"/>
<path d="M4227 2687 c-56 -34 -77 -72 -77 -137 0 -102 72 -167 172 -158 62 6
97 31 126 91 19 36 22 55 17 86 -19 116 -141 176 -238 118z"/>
<path d="M3053 2215 c-150 -27 -300 -90 -328 -138 -68 -117 -232 -296 -354
-387 -67 -50 -71 -55 -100 -135 -45 -125 -62 -225 -62 -360 0 -271 93 -508
278 -704 137 -147 305 -246 501 -298 84 -22 118 -26 252 -26 136 0 167 3 254
26 460 123 776 531 776 1002 0 151 -39 325 -99 443 l-21 42 -73 0 c-155 0
-352 47 -487 115 -148 75 -315 225 -406 365 -25 38 -48 70 -52 69 -4 0 -39 -7
-79 -14z m236 -402 c34 -33 384 -830 384 -875 0 -41 -371 -590 -407 -602 -57
-21 -70 -7 -274 298 -160 239 -193 293 -189 315 3 14 88 214 188 444 148 340
187 421 208 432 38 21 57 18 90 -12z"/>
<path d="M3117 1283 c-64 -148 -117 -274 -119 -282 -2 -9 35 -27 119 -57 l122
-43 120 42 c67 23 121 47 121 52 0 15 -234 554 -241 555 -3 0 -58 -120 -122
-267z"/>
<path d="M3106 753 c77 -120 128 -193 133 -193 9 1 153 220 144 220 -4 0 -37
-10 -75 -22 l-68 -22 -68 22 c-86 28 -88 28 -66 -5z"/>
</g>
</svg>
